<svg width="28" height="28" viewBox="0 0 28 28" fill="none" xmlns="http://www.w3.org/2000/svg">
<path fill-rule="evenodd" clip-rule="evenodd" d="M5.35718 17.8549C2.73467 11.4179 7.4703 4.375 14.4211 4.375H14.7961C19.9943 4.375 24.2083 8.58901 24.2083 13.7873C24.2083 19.5749 19.5165 24.2667 13.7289 24.2667H4.60525C4.23395 24.2667 3.90308 24.0323 3.77985 23.6821C3.65662 23.3318 3.76786 22.9419 4.05736 22.7094L6.35743 20.8623C6.458 20.7815 6.49358 20.6443 6.44491 20.5248L5.35718 17.8549ZM14.4211 6.125C8.71312 6.125 4.82425 11.9086 6.97784 17.1947L8.06557 19.8645C8.40624 20.7007 8.15721 21.6614 7.45322 22.2267L7.09219 22.5167H13.7289C18.55 22.5167 22.4583 18.6084 22.4583 13.7873C22.4583 9.55551 19.0278 6.125 14.7961 6.125H14.4211Z" fill="#AAAAAA" fill-opacity="0.8"/>
</svg>
