<svg width="28" height="28" viewBox="0 0 28 28" fill="none" xmlns="http://www.w3.org/2000/svg">
<path fill-rule="evenodd" clip-rule="evenodd" d="M15.8175 6.45665C14.8018 5.48206 13.1982 5.48206 12.1825 6.45665L6.78503 11.6359C6.65279 11.7628 6.56383 11.9281 6.53078 12.1083C5.88429 15.6338 5.83657 19.2431 6.38962 22.7844L6.52089 23.625H9.99343V16.3785C9.99343 15.8952 10.3852 15.5035 10.8684 15.5035H17.1316C17.6148 15.5035 18.0066 15.8952 18.0066 16.3785V23.625H21.4791L21.6104 22.7844C22.1634 19.2431 22.1157 15.6338 21.4692 12.1083C21.4362 11.9281 21.3472 11.7628 21.215 11.6359L15.8175 6.45665ZM10.9709 5.19394C12.6637 3.56963 15.3363 3.56963 17.0291 5.19394L22.4266 10.3732C22.8239 10.7544 23.0912 11.2511 23.1905 11.7927C23.8725 15.5116 23.9228 19.3188 23.3394 23.0545L23.1285 24.4048C23.0413 24.9633 22.5603 25.375 21.9951 25.375H17.1316C16.6483 25.375 16.2566 24.9833 16.2566 24.5V17.2535H11.7434V24.5C11.7434 24.9833 11.3517 25.375 10.8684 25.375H6.00491C5.43968 25.375 4.95868 24.9633 4.87147 24.4048L4.66058 23.0545C4.07719 19.3188 4.12753 15.5116 4.80948 11.7927C4.9088 11.2511 5.17606 10.7544 5.5734 10.3732L10.9709 5.19394Z" fill="#6AC9E5"/>
</svg>
