<svg width="28" height="28" viewBox="0 0 28 28" fill="none" xmlns="http://www.w3.org/2000/svg">
<path fill-rule="evenodd" clip-rule="evenodd" d="M9.04167 8.74996C9.04167 6.01155 11.2616 3.79163 14 3.79163C16.7384 3.79163 18.9583 6.01155 18.9583 8.74996C18.9583 11.4884 16.7384 13.7083 14 13.7083C11.2616 13.7083 9.04167 11.4884 9.04167 8.74996ZM14 5.54163C12.2281 5.54163 10.7917 6.97805 10.7917 8.74996C10.7917 10.5219 12.2281 11.9583 14 11.9583C15.7719 11.9583 17.2083 10.5219 17.2083 8.74996C17.2083 6.97805 15.7719 5.54163 14 5.54163Z" fill="#6AC9E5"/>
<path fill-rule="evenodd" clip-rule="evenodd" d="M9.33334 17.2083C7.88359 17.2083 6.70834 18.3835 6.70834 19.8333V21.2196C6.70834 21.2407 6.72363 21.2587 6.74447 21.2621C11.5497 22.0467 16.4503 22.0467 21.2555 21.2621C21.2764 21.2587 21.2917 21.2407 21.2917 21.2196V19.8333C21.2917 18.3835 20.1164 17.2083 18.6667 17.2083H18.269C18.2382 17.2083 18.2077 17.2132 18.1785 17.2227L17.1687 17.5524C15.1097 18.2247 12.8903 18.2247 10.8313 17.5524L9.82155 17.2227C9.79232 17.2132 9.76176 17.2083 9.73102 17.2083H9.33334ZM4.95834 19.8333C4.95834 17.417 6.91709 15.4583 9.33334 15.4583H9.73102C9.94626 15.4583 10.1601 15.4923 10.3648 15.5591L11.3745 15.8889C13.0805 16.4459 14.9195 16.4459 16.6255 15.8889L17.6353 15.5591C17.8399 15.4923 18.0537 15.4583 18.269 15.4583H18.6667C21.0829 15.4583 23.0417 17.417 23.0417 19.8333V21.2196C23.0417 22.0984 22.4048 22.8477 21.5375 22.9893C16.5456 23.8043 11.4545 23.8043 6.46249 22.9893C5.5952 22.8477 4.95834 22.0984 4.95834 21.2196V19.8333Z" fill="#6AC9E5"/>
</svg>
