<svg width="28" height="28" viewBox="0 0 28 28" fill="none" xmlns="http://www.w3.org/2000/svg">
<path fill-rule="evenodd" clip-rule="evenodd" d="M8.45833 11.6667C8.45833 8.60613 10.9394 6.12504 14 6.12504C17.0606 6.12504 19.5417 8.60613 19.5417 11.6667C19.5417 14.7273 17.0606 17.2084 14 17.2084C10.9394 17.2084 8.45833 14.7273 8.45833 11.6667ZM14 7.87504C11.9059 7.87504 10.2083 9.57263 10.2083 11.6667C10.2083 13.7608 11.9059 15.4584 14 15.4584C16.0941 15.4584 17.7917 13.7608 17.7917 11.6667C17.7917 9.57263 16.0941 7.87504 14 7.87504Z" fill="#6AC9E5"/>
<path fill-rule="evenodd" clip-rule="evenodd" d="M4.11176 10.333C4.52514 5.31799 8.71598 1.45837 13.748 1.45837H14.252C19.284 1.45837 23.4749 5.31799 23.8882 10.333C24.1103 13.027 23.2781 15.7021 21.567 17.7947L15.9751 24.6335C14.9543 25.8819 13.0457 25.8819 12.0249 24.6335L6.43296 17.7947C4.72186 15.7021 3.8897 13.027 4.11176 10.333ZM13.748 3.20837C9.62674 3.20837 6.19441 6.36943 5.85584 10.4768C5.67103 12.7189 6.36361 14.9453 7.78772 16.687L13.3796 23.5257C13.7003 23.9178 14.2997 23.9178 14.6204 23.5257L20.2123 16.687C21.6364 14.9453 22.329 12.7189 22.1442 10.4768C21.8056 6.36943 18.3733 3.20837 14.252 3.20837H13.748Z" fill="#6AC9E5"/>
</svg>
